<svg width="22" height="21" viewBox="0 0 22 21" fill="none" xmlns="http://www.w3.org/2000/svg">
<path d="M17.2079 15.6431H16.3279V10.5831C16.3279 7.54713 13.8639 5.08313 10.8279 5.08313C7.79193 5.08313 5.32793 7.54713 5.32793 10.5831V15.6431H4.44793C3.72193 15.6431 3.12793 16.2371 3.12793 16.9631V19.1631C3.12793 19.8891 3.72193 20.4831 4.44793 20.4831H17.2079C17.9339 20.4831 18.5279 19.8891 18.5279 19.1631V16.9631C18.5279 16.2371 17.9339 15.6431 17.2079 15.6431ZM6.20793 10.5831C6.20793 8.03113 8.27593 5.96313 10.8279 5.96313C13.3799 5.96313 15.4479 8.03113 15.4479 10.5831V15.6431H11.2679V12.9371C11.9059 12.7391 12.3679 12.1671 12.3679 11.4631C12.3679 10.6051 11.6859 9.92313 10.8279 9.92313C9.96993 9.92313 9.28793 10.6051 9.28793 11.4631C9.28793 12.1671 9.74993 12.7391 10.3879 12.9371V15.6431H6.20793V10.5831ZM10.8279 12.1231C10.4539 12.1231 10.1679 11.8151 10.1679 11.4631C10.1679 11.0891 10.4539 10.8031 10.8279 10.8031C11.2019 10.8031 11.4879 11.0891 11.4879 11.4631C11.4879 11.8151 11.2019 12.1231 10.8279 12.1231ZM17.6479 19.1631C17.6479 19.4051 17.4499 19.6031 17.2079 19.6031H4.44793C4.20593 19.6031 4.00793 19.4051 4.00793 19.1631V16.9631C4.00793 16.7211 4.20593 16.5231 4.44793 16.5231H17.2079C17.4499 16.5231 17.6479 16.7211 17.6479 16.9631V19.1631Z" fill="#E51C23" stroke="#E51C23" stroke-width="0.7"/>
<path d="M10.8277 3.76311C11.0697 3.76311 11.2677 3.56511 11.2677 3.32311V1.12311C11.2677 0.881105 11.0697 0.683105 10.8277 0.683105C10.5857 0.683105 10.3877 0.881105 10.3877 1.12311V3.32311C10.3877 3.56511 10.5857 3.76311 10.8277 3.76311Z" fill="#E51C23" stroke="#E51C23" stroke-width="0.7"/>
<path d="M20.2875 10.1431H18.0875C17.8455 10.1431 17.6475 10.3411 17.6475 10.5831C17.6475 10.8251 17.8455 11.0231 18.0875 11.0231H20.2875C20.5295 11.0231 20.7275 10.8251 20.7275 10.5831C20.7275 10.3411 20.5295 10.1431 20.2875 10.1431Z" fill="#E51C23" stroke="#E51C23" stroke-width="0.7"/>
<path d="M4.00773 10.5831C4.00773 10.3411 3.80973 10.1431 3.56773 10.1431H1.36773C1.12573 10.1431 0.927734 10.3411 0.927734 10.5831C0.927734 10.8251 1.12573 11.0231 1.36773 11.0231H3.56773C3.80973 11.0231 4.00773 10.8251 4.00773 10.5831Z" fill="#E51C23" stroke="#E51C23" stroke-width="0.7"/>
<path d="M5.39419 5.76508C5.48219 5.85308 5.59219 5.89708 5.70219 5.89708C5.81219 5.89708 5.92219 5.85308 6.01019 5.76508C6.18619 5.58908 6.18619 5.32508 6.01019 5.14908L4.44819 3.58708C4.27219 3.41108 4.0082 3.41108 3.8322 3.58708C3.6562 3.76308 3.6562 4.02708 3.8322 4.20308L5.39419 5.76508Z" fill="#E51C23" stroke="#E51C23" stroke-width="0.7"/>
<path d="M15.9537 5.89708C16.0637 5.89708 16.1737 5.85308 16.2617 5.76508L17.8237 4.20308C17.9997 4.02708 17.9997 3.76308 17.8237 3.58708C17.6477 3.41108 17.3837 3.41108 17.2077 3.58708L15.6457 5.14908C15.4697 5.32508 15.4697 5.58908 15.6457 5.76508C15.7337 5.85308 15.8437 5.89708 15.9537 5.89708Z" fill="#E51C23" stroke="#E51C23" stroke-width="0.7"/>
</svg>
