<svg width="25" height="25" viewBox="0 0 25 25" fill="none" xmlns="http://www.w3.org/2000/svg">
<path d="M2.93359 3.47876H8.93359C9.99446 3.47876 11.0119 3.90019 11.762 4.65033C12.5122 5.40048 12.9336 6.41789 12.9336 7.47876V21.4788C12.9336 20.6831 12.6175 19.92 12.0549 19.3574C11.4923 18.7948 10.7292 18.4788 9.93359 18.4788H2.93359V3.47876Z" stroke="#A3CBC9" stroke-width="2" stroke-linecap="round" stroke-linejoin="round"/>
<path d="M22.9336 3.47876H16.9336C15.8727 3.47876 14.8553 3.90019 14.1052 4.65033C13.355 5.40048 12.9336 6.41789 12.9336 7.47876V21.4788C12.9336 20.6831 13.2497 19.92 13.8123 19.3574C14.3749 18.7948 15.1379 18.4788 15.9336 18.4788H22.9336V3.47876Z" stroke="#A3CBC9" stroke-width="2" stroke-linecap="round" stroke-linejoin="round"/>
</svg>
