<svg width="24" height="25" viewBox="0 0 24 25" fill="none" xmlns="http://www.w3.org/2000/svg">
<path d="M2 3.47876H8C9.06087 3.47876 10.0783 3.90019 10.8284 4.65033C11.5786 5.40048 12 6.41789 12 7.47876V21.4788C12 20.6831 11.6839 19.92 11.1213 19.3574C10.5587 18.7948 9.79565 18.4788 9 18.4788H2V3.47876Z" stroke="#007F61" stroke-width="2" stroke-linecap="round" stroke-linejoin="round"/>
<path d="M22 3.47876H16C14.9391 3.47876 13.9217 3.90019 13.1716 4.65033C12.4214 5.40048 12 6.41789 12 7.47876V21.4788C12 20.6831 12.3161 19.92 12.8787 19.3574C13.4413 18.7948 14.2044 18.4788 15 18.4788H22V3.47876Z" stroke="#007F61" stroke-width="2" stroke-linecap="round" stroke-linejoin="round"/>
</svg>
