<svg width="45" height="45" viewBox="0 0 45 45" fill="none" xmlns="http://www.w3.org/2000/svg">
<rect x="0.376953" y="0.0593262" width="44" height="44" rx="7" fill="#007F61" fill-opacity="0.15"/>
<rect x="0.376953" y="0.0593262" width="44" height="44" rx="7" stroke="#007F61"/>
<path d="M31.5 11.5239H30.375V9.27393H28.125V11.5239H16.875V9.27393H14.625V11.5239H13.5C12.2625 11.5239 11.25 12.5364 11.25 13.7739V31.7739C11.25 33.0114 12.2625 34.0239 13.5 34.0239H31.5C32.7375 34.0239 33.75 33.0114 33.75 31.7739V13.7739C33.75 12.5364 32.7375 11.5239 31.5 11.5239ZM31.5 31.7739H13.5V19.3989H31.5V31.7739ZM31.5 17.1489H13.5V13.7739H31.5V17.1489Z" fill="#007F61"/>
</svg>
