<svg width="200" height="41" viewBox="0 0 200 41" fill="none" xmlns="http://www.w3.org/2000/svg">
<path d="M10.138 23.9313C8.23023 23.9339 6.36453 23.3772 4.77715 22.3318C3.18977 21.2863 1.95208 19.799 1.22077 18.0583C0.489457 16.3175 0.297419 14.4015 0.668959 12.5529C1.0405 10.7042 1.95892 9.00604 3.30793 7.67333C4.65695 6.34063 6.3759 5.43331 8.24717 5.06626C10.1184 4.69921 12.0579 4.88894 13.8199 5.61141C15.582 6.33388 17.0875 7.55661 18.1457 9.12481C19.204 10.693 19.7674 12.5361 19.7648 14.4209C19.7612 16.9421 18.7458 19.3591 16.9412 21.1418C15.1366 22.9246 12.6901 23.9277 10.138 23.9313ZM10.138 6.02622C8.4574 6.02622 6.81452 6.51855 5.41714 7.44097C4.01975 8.36338 2.93062 9.67445 2.28748 11.2084C1.64433 12.7423 1.47606 14.4302 1.80393 16.0586C2.1318 17.687 2.9411 19.1828 4.12948 20.3568C5.31786 21.5308 6.83194 22.3303 8.48027 22.6542C10.1286 22.9781 11.8371 22.8119 13.3898 22.1765C14.9425 21.5411 16.2696 20.4652 17.2033 19.0847C18.137 17.7042 18.6354 16.0812 18.6354 14.4209C18.6318 12.1955 17.7354 10.0624 16.1426 8.48884C14.5498 6.91529 12.3906 6.02973 10.138 6.02622Z" fill="#007F61"/>
<path d="M32.3494 23.9312C30.4416 23.9339 28.5759 23.3772 26.9886 22.3318C25.4012 21.2863 24.1635 19.799 23.4322 18.0583C22.7009 16.3175 22.5088 14.4015 22.8804 12.5529C23.2519 10.7042 24.1703 9.00604 25.5194 7.67333C26.8684 6.34063 28.5873 5.43331 30.4586 5.06626C32.3298 4.69921 34.2693 4.88894 36.0313 5.61141C37.7934 6.33388 39.2989 7.55661 40.3571 9.1248C41.4154 10.693 41.9788 12.5361 41.9762 14.4209C41.9726 16.9421 40.9572 19.3591 39.1526 21.1418C37.348 22.9246 34.9015 23.9277 32.3494 23.9312ZM32.3494 6.02622C30.6688 6.02622 29.0259 6.51855 27.6285 7.44097C26.2312 8.36338 25.142 9.67445 24.4989 11.2084C23.8558 12.7423 23.6875 14.4302 24.0154 16.0586C24.3432 17.687 25.1525 19.1828 26.3409 20.3568C27.5293 21.5308 29.0433 22.3303 30.6917 22.6542C32.34 22.9781 34.0485 22.8119 35.6012 22.1765C37.1539 21.5411 38.481 20.4652 39.4147 19.0847C40.3484 17.7042 40.8468 16.0812 40.8468 14.4209C40.8468 12.1945 39.9515 10.0593 38.358 8.48495C36.7644 6.91065 34.6031 6.02622 32.3494 6.02622Z" fill="#007F61"/>
<path d="M21.2437 8.93519C20.2764 8.93345 19.3273 9.19543 18.5009 9.69231C18.6881 10.0135 18.8543 10.3463 18.9984 10.6885C19.6717 10.2726 20.4497 10.0521 21.2437 10.0521C22.0378 10.0521 22.8158 10.2726 23.4891 10.6885C23.6332 10.3463 23.7994 10.0135 23.9866 9.69231C23.1602 9.19543 22.2111 8.93345 21.2437 8.93519Z" fill="#007F61"/>
<path d="M10.7162 22.3373L10.138 22.3639C8.46921 22.3659 6.8411 21.8549 5.47948 20.9017C4.11787 19.9485 3.09022 18.6004 2.53906 17.0442C1.9879 15.4881 1.94053 13.8011 2.40352 12.2172C2.86652 10.6332 3.81693 9.23089 5.12297 8.20459C4.44287 9.61068 4.08918 11.149 4.08769 12.7074C4.08477 14.7848 4.71567 16.8148 5.89809 18.5326C7.08051 20.2505 8.75955 21.5764 10.7162 22.3373Z" fill="#007F61"/>
<path d="M33.0621 22.3373L32.4839 22.3639C30.8151 22.3659 29.187 21.8549 27.8254 20.9017C26.4638 19.9485 25.4361 18.6004 24.8849 17.0442C24.3338 15.4881 24.2864 13.8011 24.7494 12.2172C25.2124 10.6332 26.1628 9.23089 27.4689 8.20459C26.8452 9.4877 26.4955 10.8839 26.4415 12.3062C26.3876 13.7286 26.6305 15.1467 27.1551 16.4724C27.6797 17.798 28.4749 19.0028 29.4911 20.0118C30.5073 21.0208 31.7229 21.8124 33.0621 22.3373Z" fill="#007F61"/>
<path d="M22.9513 27.7302C22.4266 27.7284 21.9052 27.6477 21.4051 27.4911C21.3477 27.4732 21.2946 27.444 21.249 27.4052C21.2033 27.3664 21.1662 27.3188 21.1398 27.2654C21.1134 27.212 21.0982 27.1538 21.0953 27.0944C21.0924 27.035 21.1017 26.9756 21.1227 26.9199C21.1624 26.8075 21.2455 26.7152 21.3537 26.663C21.462 26.6107 21.5868 26.6028 21.7009 26.641C22.3731 26.8668 23.153 26.9066 23.6908 26.7473C24.2286 26.5879 24.0941 26.3886 24.0807 26.2159C24.0269 25.4588 23.5025 24.6353 23.0723 23.9977C22.642 23.3602 22.3597 23.068 21.9967 22.6296L21.432 21.9389C21.3949 21.8931 21.3675 21.8403 21.3515 21.7838C21.3354 21.7273 21.3311 21.6682 21.3386 21.6099C21.3461 21.5517 21.3654 21.4956 21.3953 21.4448C21.4252 21.3941 21.4651 21.3498 21.5126 21.3146C21.5582 21.2773 21.6109 21.2494 21.6676 21.2324C21.7243 21.2155 21.7839 21.21 21.8428 21.2162C21.9017 21.2224 21.9587 21.2402 22.0106 21.2685C22.0624 21.2968 22.108 21.3351 22.1446 21.3811C22.3194 21.6202 22.5076 21.8327 22.6958 22.0585C23.0723 22.5234 23.4622 22.9883 23.8118 23.493C24.3227 24.2103 24.9143 25.1666 24.9815 26.1363C25.0178 26.4605 24.9344 26.7868 24.7467 27.0553C24.559 27.3237 24.2795 27.5162 23.9597 27.5973C23.6315 27.688 23.292 27.7327 22.9513 27.7302Z" fill="#007F61"/>
<path d="M21.2437 29.4836C22.2252 28.4209 23.5025 28.2217 24.7932 28.2217C29.5125 28.2217 33.8687 29.4171 37.6199 32.3792C39.7443 34.0528 40.9006 36.2444 40.8468 38.9807C40.8333 39.1135 40.8333 39.2463 40.8199 39.3659C40.7661 39.7909 40.6182 40.1495 40.1207 40.1894C39.6233 40.2292 39.4216 39.937 39.2737 39.5252C39.0516 38.8439 38.7728 38.1819 38.4401 37.5461C38.2115 37.1344 37.8081 36.8289 37.472 36.4702L37.3241 36.5765C37.351 36.789 37.3914 37.0148 37.4183 37.2406C37.4989 38.0642 37.0149 38.4494 36.2485 38.1173C35.025 37.5727 33.8284 36.9883 32.6183 36.4304L32.1074 36.178C32.1881 36.4171 32.2822 36.5765 32.2822 36.7226C32.2822 36.8687 32.3494 37.5727 32.1746 37.7055C31.9998 37.8384 31.4083 37.8782 31.1259 37.7188C29.7545 36.9883 28.4234 36.178 27.0789 35.3943C26.9277 35.2952 26.7494 35.2442 26.568 35.2482C26.7159 35.5272 26.9176 35.7795 26.9848 36.0718C27.052 36.364 27.1596 36.8422 26.9982 37.0015C26.8369 37.1609 26.2991 37.2938 26.0167 37.1875C24.3361 36.5765 22.6285 35.9921 21.2437 34.7568C19.8857 35.9788 18.2185 36.5499 16.5782 37.1476C16.269 37.2672 15.7043 37.2273 15.5295 37.0281C15.3547 36.8289 15.4757 36.3374 15.5429 35.9788C15.6102 35.6202 15.785 35.5006 15.8118 35.1685L11.6842 37.5461C11.5363 37.6391 11.3884 37.7852 11.227 37.8118C11.0657 37.8383 10.501 37.9048 10.3397 37.7454C10.1783 37.586 10.1649 37.1344 10.1649 36.8156C10.1649 36.4968 10.2859 36.4702 10.4069 36.2046L6.52122 37.9977C6.13131 38.1837 5.64728 38.4626 5.3246 38.0376C5.00192 37.6126 5.17671 37.2805 5.13637 36.8953C5.13866 36.7748 5.15216 36.6547 5.17671 36.5366C4.46411 36.7757 4.1011 37.3203 3.81875 37.8915C3.57182 38.4003 3.3694 38.9292 3.21371 39.4721C3.07926 39.937 2.8238 40.216 2.33978 40.1761C1.85575 40.1363 1.70785 39.7643 1.66752 39.3526C1.57732 38.3214 1.69872 37.2829 2.02448 36.2992C2.35023 35.3155 2.87362 34.4069 3.56329 33.6277C5.49939 31.3963 8.06742 30.1344 10.8371 29.2445C13.2841 28.4608 15.785 28.0623 18.3664 28.2748C19.442 28.3545 20.4504 28.6202 21.2437 29.4836Z" fill="#007F61"/>
<path d="M25.3176 1.98831C25.8017 1.6828 26.3798 1.58982 26.9579 1.49684L30.8436 0.899124C32.5108 0.646753 34.1914 0.381096 35.8452 0.64675C37.499 0.912404 39.1527 1.78906 39.9057 3.26344C39.9977 3.42021 40.0398 3.60071 40.0267 3.78147C39.9927 3.8941 39.9286 3.99555 39.841 4.07507C39.7534 4.15458 39.6457 4.20918 39.5292 4.23307C39.2976 4.27522 39.0598 4.2707 38.83 4.21979C36.8939 3.91429 34.9982 3.42283 33.0621 3.23687C31.1259 3.05091 29.0823 3.22359 27.3747 4.16666C26.7294 4.53857 25.1563 5.76059 24.6319 4.64484C24.2151 3.7549 24.484 2.5329 25.3176 1.98831Z" fill="#007F61"/>
<path d="M17.1698 1.98831C16.6858 1.6828 16.1077 1.58982 15.5295 1.49684L11.6439 0.899124C9.97665 0.646753 8.29601 0.381096 6.64226 0.64675C4.9885 0.912404 3.33474 1.78906 2.58181 3.26344C2.48978 3.42021 2.44762 3.60071 2.4608 3.78147C2.49339 3.8948 2.55713 3.997 2.64494 4.07672C2.73275 4.15644 2.84121 4.21056 2.95827 4.23307C3.18985 4.27522 3.42766 4.2707 3.65742 4.21979C5.58009 3.91429 7.47585 3.42283 9.4254 3.23687C11.375 3.05091 13.4052 3.22359 15.0993 4.16666C15.7581 4.53857 17.3312 5.76059 17.8555 4.64484C18.2723 3.7549 18.0034 2.5329 17.1698 1.98831Z" fill="#007F61"/>
<path d="M53.7648 1.19312V14.2111H51.1575V1.19312H53.7648Z" fill="#007F61"/>
<path d="M73.1431 1.19313V14.7332H73.0726L63.8415 6.51867L63.912 14.2111H61.2695V0.671021H61.3752L70.571 9.02479V1.19313H73.1431Z" fill="#007F61"/>
<path d="M84.6995 3.42086C84.2317 3.39163 83.7656 3.50069 83.3607 3.73413C83.2004 3.84901 83.0715 4.00132 82.9854 4.17747C82.8993 4.35362 82.8588 4.54814 82.8674 4.74355C82.883 4.97216 82.9555 5.1934 83.0784 5.38769C83.2014 5.58199 83.3709 5.74333 83.5721 5.85737C84.1511 6.20855 84.765 6.50014 85.4042 6.72756C85.9587 6.92652 86.4902 7.1832 86.9897 7.4933C87.4498 7.80425 87.825 8.22275 88.0819 8.71156C88.4141 9.29433 88.5728 9.95794 88.5399 10.626C88.544 11.2779 88.3607 11.9176 88.0114 12.4708C87.6382 13.0702 87.1007 13.553 86.4612 13.8631C85.6975 14.2018 84.867 14.3683 84.0301 14.3504C83.2298 14.3543 82.4337 14.2369 81.6695 14.0023C80.899 13.7754 80.1725 13.4224 79.5203 12.9581L80.6477 10.974C81.1378 11.3094 81.671 11.5787 82.2332 11.7746C82.7272 11.9685 83.2521 12.0745 83.7835 12.0879C84.2882 12.1052 84.788 11.9848 85.228 11.7398C85.424 11.6288 85.5843 11.4654 85.6902 11.2683C85.7962 11.0712 85.8436 10.8485 85.827 10.626C85.827 9.96462 85.1928 9.3729 83.9244 8.88559C83.2866 8.62876 82.6633 8.33828 82.0571 8.01541C81.5367 7.73972 81.0899 7.3461 80.7534 6.86679C80.3595 6.30634 80.1616 5.63415 80.1897 4.95239C80.1732 4.44689 80.2651 3.94363 80.4594 3.47571C80.6537 3.00779 80.946 2.58577 81.3171 2.2374C82.1522 1.53046 83.2123 1.13619 84.312 1.12358C85.1368 1.09589 85.9601 1.21376 86.7431 1.47166C87.4154 1.68776 88.0554 1.99214 88.6457 2.37664L87.6944 4.36064C86.5317 3.73411 85.5451 3.42086 84.6995 3.42086Z" fill="#007F61"/>
<path d="M102.915 2.37657C103.361 2.78174 103.712 3.27827 103.943 3.83141C104.174 4.38455 104.28 4.98093 104.254 5.57883C104.266 6.33412 104.109 7.08277 103.796 7.77171C103.464 8.4503 102.953 9.02763 102.316 9.44247C101.502 9.90146 100.575 10.1302 99.6384 10.1038H97.771V14.2111H95.199V1.19312H99.1803C100.801 1.19312 102.034 1.576 102.915 2.37657ZM100.801 7.2844C101.081 7.08325 101.31 6.82125 101.47 6.51865C101.577 6.23993 101.636 5.94604 101.647 5.64847C101.638 5.18151 101.504 4.72514 101.259 4.32577C100.977 3.87328 100.449 3.66443 99.6384 3.66443H97.771V7.59767H99.6384C100.05 7.62047 100.458 7.51053 100.801 7.2844Z" fill="#007F61"/>
<path d="M119.686 1.19312V3.66443H113.274V6.44901H118.946V8.92036H113.274V11.7397H119.933V14.2111H110.702V1.19312H119.686Z" fill="#007F61"/>
<path d="M135.013 13.9325C134.247 14.2174 133.435 14.3591 132.617 14.3502C131.372 14.3892 130.141 14.0881 129.058 13.48C128.065 12.9169 127.258 12.083 126.733 11.0783C126.177 10.0768 125.897 8.94838 125.922 7.80639C125.889 6.59704 126.168 5.39928 126.733 4.32566C127.222 3.31864 128.008 2.48138 128.988 1.92395C129.996 1.32413 131.158 1.02217 132.335 1.05376C133.086 1.05036 133.834 1.15591 134.555 1.36704C135.175 1.55639 135.767 1.82557 136.316 2.16762L135.294 4.60414C134.488 3.92231 133.466 3.54058 132.405 3.52512C131.74 3.51694 131.088 3.71138 130.538 4.08203C129.941 4.44688 129.454 4.96386 129.129 5.57872C128.785 6.22115 128.615 6.94062 128.635 7.66716C128.612 8.42344 128.769 9.17452 129.093 9.86004C129.395 10.4799 129.872 10.9999 130.467 11.3568C131.111 11.7166 131.842 11.897 132.581 11.8789C133.172 11.8854 133.758 11.779 134.308 11.5656C134.759 11.3959 135.177 11.1484 135.541 10.8347L136.598 13.1319C136.122 13.4897 135.585 13.7607 135.013 13.9325Z" fill="#007F61"/>
<path d="M151.29 1.19312V3.66443H148.084V14.2111H145.477V3.66443H142.411V1.19312H151.29Z" fill="#007F61"/>
<path d="M160.521 1.19312V14.2111H157.914V1.19312H160.521Z" fill="#007F61"/>
<path d="M168.132 4.4303C168.715 3.41458 169.552 2.56366 170.563 1.95899C171.576 1.36567 172.732 1.05301 173.91 1.05397C175.099 1.05189 176.267 1.36441 177.292 1.95899C178.306 2.57194 179.153 3.42031 179.759 4.4303C180.357 5.43211 180.672 6.57393 180.672 7.737C180.672 8.90007 180.357 10.0419 179.759 11.0437C179.15 12.0336 178.303 12.8588 177.292 13.4454C176.273 14.0549 175.101 14.3685 173.91 14.3504C172.73 14.3677 171.569 14.0539 170.563 13.4454C169.555 12.8676 168.717 12.0397 168.132 11.0437C167.534 10.0419 167.218 8.90007 167.218 7.737C167.218 6.57393 167.534 5.43211 168.132 4.4303ZM170.457 9.82544C170.807 10.4451 171.318 10.9617 171.937 11.3221C172.562 11.6999 173.283 11.8931 174.016 11.8791C174.726 11.8937 175.425 11.6998 176.024 11.3221C176.632 10.9595 177.131 10.4427 177.468 9.82544C177.825 9.18628 178.007 8.46662 177.997 7.737C178.017 6.99074 177.821 6.25432 177.433 5.61376C177.107 4.97952 176.606 4.4488 175.989 4.08223C175.371 3.7173 174.665 3.5246 173.945 3.5246C173.225 3.5246 172.519 3.7173 171.902 4.08223C171.281 4.45621 170.771 4.98427 170.422 5.61376C170.063 6.26439 169.881 6.99599 169.893 7.737C169.887 8.4706 170.082 9.19216 170.457 9.82544Z" fill="#007F61"/>
<path d="M199.243 1.19313V14.7332H199.172L189.941 6.51867L190.011 14.2111H187.369V0.671021H187.475L196.671 9.02479V1.19313H199.243Z" fill="#007F61"/>
<path d="M58.4146 38.906C57.6545 39.1273 56.8577 39.1985 56.0697 39.1155C55.2817 39.0324 54.5181 38.7968 53.8223 38.4221C52.9921 37.9274 52.3086 37.2251 51.841 36.3861C51.3733 35.5471 51.138 34.601 51.1588 33.6434C51.1481 32.639 51.4013 31.649 51.8936 30.7701C52.3498 29.9225 53.0398 29.2199 53.8836 28.7437C54.7389 28.2516 55.7104 27.9908 56.7001 27.9876C57.7721 27.9743 58.8249 28.2685 59.731 28.8345L59.3943 29.5301C58.606 29.0071 57.6802 28.7232 56.7308 28.7135C55.8867 28.7049 55.0579 28.9358 54.3428 29.3789C53.6085 29.8069 53.0054 30.4236 52.5977 31.1633C52.1713 31.9107 51.9497 32.7552 51.9548 33.6131C51.9403 34.4551 52.1403 35.2871 52.5365 36.0327C52.9217 36.7608 53.5048 37.3683 54.2203 37.7869C54.9819 38.2232 55.8507 38.443 56.7308 38.4221C57.6878 38.429 58.6253 38.1554 59.4249 37.6357L59.7923 38.3011C59.3565 38.5513 58.8946 38.7541 58.4146 38.906Z" fill="#007F61"/>
<path d="M66.2213 30.8004C66.725 29.9598 67.4292 29.2537 68.2725 28.7437C69.1278 28.2516 70.0993 27.9908 71.0891 27.9876C72.0849 27.984 73.0637 28.2428 73.9247 28.7372C74.7857 29.2316 75.4977 29.9438 75.9875 30.8004C76.732 32.0763 76.9342 33.5918 76.5497 35.0148C76.1652 36.4377 75.2254 37.6521 73.9363 38.3918C73.0743 38.8946 72.0901 39.156 71.0891 39.1479C70.1019 39.1554 69.1302 38.9049 68.2725 38.4221C67.4191 37.9516 66.7103 37.2618 66.2213 36.4259C65.7154 35.5621 65.4513 34.5808 65.4559 33.5829C65.4592 32.605 65.7232 31.6453 66.2213 30.8004ZM66.8948 36.0025C67.3108 36.7362 67.912 37.3509 68.6399 37.7869C69.3853 38.2084 70.2303 38.4275 71.0891 38.4221C71.9483 38.4304 72.794 38.2111 73.5383 37.7869C74.2828 37.3587 74.9007 36.7452 75.3305 36.0076C75.7602 35.27 75.9867 34.434 75.9875 33.5829C75.9852 32.7315 75.7526 31.8961 75.3139 31.1633C74.8861 30.4283 74.2748 29.814 73.5383 29.3788C72.7979 28.9419 71.9515 28.7112 71.0891 28.7112C70.2266 28.7112 69.3803 28.9419 68.6399 29.3788C67.912 29.8148 67.3108 30.4296 66.8948 31.1633C66.4684 31.9107 66.2468 32.7551 66.2519 33.6131C66.2474 34.4519 66.4693 35.2766 66.8948 36.0025Z" fill="#007F61"/>
<path d="M93.7135 27.8667V39.027H92.9788V30.0746L88.4172 36.3957H88.3866L83.8862 30.1351V39.027H83.1514V27.8667L88.4172 35.2767L93.7135 27.8667Z" fill="#007F61"/>
<path d="M105.867 28.9253C106.48 29.4496 106.786 30.2057 106.786 31.1937C106.791 31.749 106.666 32.2979 106.418 32.7967C106.156 33.3017 105.752 33.7216 105.255 34.0065C104.644 34.3288 103.957 34.4853 103.265 34.4601H101.581V39.0271H100.816V28.1087H103.357C104.267 28.0667 105.161 28.3574 105.867 28.9253ZM104.888 33.3411C105.277 33.102 105.586 32.7548 105.776 32.343C105.947 31.9841 106.031 31.5904 106.02 31.1937C106.036 30.8803 105.985 30.5672 105.869 30.2751C105.752 29.9831 105.575 29.7188 105.347 29.5C105.092 29.2686 104.793 29.0904 104.467 28.9761C104.14 28.8618 103.794 28.8136 103.449 28.8346H101.581V33.7343H103.265C103.832 33.7528 104.394 33.6167 104.888 33.3411Z" fill="#007F61"/>
<path d="M119.185 39.0271L116.307 34.3997L115.481 34.4602H113.766V39.0271H113.001V28.1088H115.511C116.092 28.1097 116.666 28.2334 117.195 28.4717C117.737 28.6952 118.199 29.074 118.521 29.5592C118.843 30.0443 119.01 30.6137 119.001 31.1937C119.013 31.828 118.854 32.4541 118.542 33.0084C118.217 33.568 117.694 33.9884 117.073 34.188L120.073 39.0271H119.185ZM117.562 32.9782C118.009 32.5142 118.251 31.8943 118.236 31.2542C118.238 30.8281 118.121 30.4097 117.899 30.0444C117.682 29.6731 117.364 29.3693 116.981 29.1673C116.569 28.9407 116.105 28.8259 115.634 28.8346H113.766V33.7343H115.419C116.43 33.7343 117.134 33.4923 117.562 32.9782Z" fill="#007F61"/>
<path d="M133.237 28.1088V28.8346H127.175V33.1596H132.625V33.8855H127.175V38.3013H133.451V39.0271H126.41V28.1088H133.237Z" fill="#007F61"/>
<path d="M144.197 28.895C143.768 28.7775 143.326 28.7164 142.881 28.7135C142.252 28.6803 141.631 28.8737 141.136 29.2579C140.917 29.4104 140.74 29.6151 140.622 29.853C140.504 30.0909 140.449 30.3544 140.462 30.6189C140.451 30.9767 140.583 31.3244 140.83 31.5868C141.07 31.8803 141.373 32.1177 141.717 32.2824C142.176 32.4985 142.646 32.6903 143.126 32.857C143.654 33.048 144.166 33.2807 144.656 33.5527C145.073 33.7932 145.429 34.1241 145.697 34.5205C145.997 34.9791 146.147 35.5176 146.126 36.063C146.134 36.6395 145.974 37.2062 145.667 37.6962C145.385 38.1594 144.969 38.5283 144.473 38.7548C143.911 39.0263 143.292 39.1612 142.666 39.148C141.416 39.1267 140.201 38.7371 139.176 38.0289L139.544 37.424C139.984 37.7252 140.456 37.9787 140.952 38.1801C141.469 38.3796 142.019 38.4822 142.575 38.4826C143.038 38.4861 143.497 38.3934 143.922 38.2104C144.328 38.0348 144.677 37.7523 144.932 37.3938C145.208 37.0162 145.348 36.5585 145.33 36.0932C145.346 35.661 145.216 35.2358 144.963 34.8835C144.725 34.5518 144.41 34.2819 144.044 34.0971C143.607 33.8493 143.145 33.6466 142.666 33.4922C142.145 33.2971 141.634 33.075 141.136 32.8268C140.725 32.6309 140.368 32.3405 140.095 31.9799C139.815 31.6046 139.674 31.1453 139.697 30.6794C139.689 30.1966 139.828 29.7226 140.095 29.3183C140.363 28.9141 140.746 28.5981 141.197 28.4111C141.689 28.192 142.219 28.0687 142.758 28.0481C143.285 28.0592 143.809 28.1302 144.32 28.2598C144.809 28.3707 145.283 28.5435 145.728 28.774L145.452 29.3486C145.05 29.1565 144.63 29.0045 144.197 28.895Z" fill="#007F61"/>
<path d="M156.81 28.895C156.372 28.7755 155.919 28.7145 155.463 28.7135C154.835 28.6883 154.218 28.8808 153.718 29.2579C153.509 29.4174 153.341 29.6243 153.229 29.8611C153.117 30.0979 153.065 30.3578 153.075 30.6189C153.064 30.9767 153.196 31.3244 153.443 31.5868C153.683 31.8802 153.987 32.1177 154.331 32.2824C154.789 32.4984 155.26 32.6903 155.739 32.857C156.267 33.048 156.779 33.2807 157.27 33.5527C157.68 33.8016 158.034 34.1309 158.311 34.5205C158.61 34.9791 158.76 35.5175 158.739 36.063C158.747 36.6395 158.587 37.2061 158.28 37.6962C157.995 38.1679 157.566 38.5385 157.055 38.7547C156.506 39.0296 155.895 39.1648 155.28 39.1479C154.029 39.1267 152.814 38.737 151.79 38.0289L152.157 37.424C152.598 37.7252 153.07 37.9787 153.565 38.1801C154.082 38.3796 154.633 38.4821 155.188 38.4825C155.651 38.4826 156.109 38.39 156.535 38.2104C156.941 38.0348 157.291 37.7523 157.545 37.3937C157.821 37.0162 157.961 36.5585 157.943 36.0932C157.959 35.661 157.83 35.2358 157.576 34.8834C157.339 34.5518 157.023 34.2819 156.657 34.097C156.22 33.8493 155.759 33.6466 155.28 33.4921C154.748 33.2965 154.227 33.0744 153.718 32.8268C153.323 32.6216 152.977 32.3323 152.708 31.9799C152.428 31.6046 152.287 31.1452 152.31 30.6794C152.302 30.1966 152.441 29.7226 152.709 29.3183C152.976 28.9141 153.36 28.5981 153.81 28.4111C154.302 28.192 154.832 28.0687 155.372 28.0481C155.898 28.061 156.422 28.132 156.933 28.2598C157.423 28.3707 157.896 28.5435 158.341 28.774L158.066 29.3486C157.662 29.1613 157.242 29.0094 156.81 28.895Z" fill="#007F61"/>
<path d="M165.903 28.1088V39.0271H165.138V28.1088H165.903Z" fill="#007F61"/>
<path d="M173.067 30.8005C173.562 29.9536 174.268 29.2457 175.118 28.7438C175.972 28.2494 176.945 27.9888 177.935 27.9888C178.925 27.9888 179.897 28.2494 180.751 28.7438C181.61 29.2449 182.326 29.9524 182.833 30.8005C183.334 31.6444 183.597 32.6049 183.597 33.583C183.597 34.5611 183.334 35.5215 182.833 36.3655C182.328 37.2062 181.611 37.904 180.753 38.3915C179.895 38.8789 178.924 39.1395 177.935 39.148C176.937 39.1593 175.955 38.9088 175.088 38.4221C174.243 37.951 173.544 37.2608 173.067 36.426C172.547 35.5682 172.281 34.5829 172.302 33.583C172.29 32.6032 172.555 31.6395 173.067 30.8005ZM173.74 36.0026C174.156 36.7363 174.758 37.351 175.486 37.787C176.219 38.2115 177.055 38.431 177.904 38.4221C178.773 38.4272 179.627 38.2083 180.384 37.787C181.119 37.3635 181.731 36.7592 182.16 36.0328C182.586 35.2854 182.808 34.4409 182.802 33.583C182.811 32.7342 182.589 31.8987 182.16 31.1634C181.72 30.4272 181.099 29.8132 180.353 29.3789C179.621 28.9494 178.786 28.7198 177.935 28.7136C177.064 28.7191 176.209 28.9484 175.455 29.3789C174.734 29.8231 174.134 30.436 173.71 31.1634C173.283 31.9108 173.062 32.7552 173.067 33.6132C173.058 34.4567 173.291 35.2854 173.74 36.0026Z" fill="#007F61"/>
<path d="M199.243 28.1086V39.2991H199.212L190.701 29.8325V39.0269H189.936V27.8969H189.997L198.508 37.4239V28.1086H199.243Z" fill="#007F61"/>
</svg>
