<svg width="25" height="25" viewBox="0 0 25 25" fill="none" xmlns="http://www.w3.org/2000/svg">
<path d="M3.98633 18.4287V12.4287C3.98633 10.0418 4.93454 7.75258 6.62237 6.06475C8.31019 4.37692 10.5994 3.42871 12.9863 3.42871C15.3733 3.42871 17.6625 4.37692 19.3503 6.06475C21.0381 7.75258 21.9863 10.0418 21.9863 12.4287V18.4287" stroke="#A3CBC9" stroke-width="2" stroke-linecap="round" stroke-linejoin="round"/>
<path d="M21.9863 19.4287C21.9863 19.9591 21.7756 20.4679 21.4005 20.8429C21.0255 21.218 20.5168 21.4287 19.9863 21.4287H18.9863C18.4559 21.4287 17.9472 21.218 17.5721 20.8429C17.197 20.4679 16.9863 19.9591 16.9863 19.4287V16.4287C16.9863 15.8983 17.197 15.3896 17.5721 15.0145C17.9472 14.6394 18.4559 14.4287 18.9863 14.4287H21.9863V19.4287ZM3.98633 19.4287C3.98633 19.9591 4.19704 20.4679 4.57211 20.8429C4.94719 21.218 5.4559 21.4287 5.98633 21.4287H6.98633C7.51676 21.4287 8.02547 21.218 8.40054 20.8429C8.77561 20.4679 8.98633 19.9591 8.98633 19.4287V16.4287C8.98633 15.8983 8.77561 15.3896 8.40054 15.0145C8.02547 14.6394 7.51676 14.4287 6.98633 14.4287H3.98633V19.4287Z" stroke="#A3CBC9" stroke-width="2" stroke-linecap="round" stroke-linejoin="round"/>
</svg>
