<svg width="25" height="25" viewBox="0 0 25 25" fill="none" xmlns="http://www.w3.org/2000/svg">
<path d="M3.05273 18.4287V12.4287C3.05273 10.0418 4.00095 7.75258 5.68877 6.06475C7.3766 4.37692 9.66579 3.42871 12.0527 3.42871C14.4397 3.42871 16.7289 4.37692 18.4167 6.06475C20.1045 7.75258 21.0527 10.0418 21.0527 12.4287V18.4287" stroke="#007F61" stroke-width="2" stroke-linecap="round" stroke-linejoin="round"/>
<path d="M21.0527 19.4287C21.0527 19.9591 20.842 20.4679 20.4669 20.8429C20.0919 21.218 19.5832 21.4287 19.0527 21.4287H18.0527C17.5223 21.4287 17.0136 21.218 16.6385 20.8429C16.2634 20.4679 16.0527 19.9591 16.0527 19.4287V16.4287C16.0527 15.8983 16.2634 15.3896 16.6385 15.0145C17.0136 14.6394 17.5223 14.4287 18.0527 14.4287H21.0527V19.4287ZM3.05273 19.4287C3.05273 19.9591 3.26345 20.4679 3.63852 20.8429C4.01359 21.218 4.5223 21.4287 5.05273 21.4287H6.05273C6.58317 21.4287 7.09188 21.218 7.46695 20.8429C7.84202 20.4679 8.05273 19.9591 8.05273 19.4287V16.4287C8.05273 15.8983 7.84202 15.3896 7.46695 15.0145C7.09188 14.6394 6.58317 14.4287 6.05273 14.4287H3.05273V19.4287Z" stroke="#007F61" stroke-width="2" stroke-linecap="round" stroke-linejoin="round"/>
</svg>
