<svg width="34" height="33" viewBox="0 0 34 33" fill="none" xmlns="http://www.w3.org/2000/svg">
<path d="M15.2578 9.625H18.0078V12.375H15.2578V9.625ZM15.2578 15.125H18.0078V23.375H15.2578V15.125ZM16.6328 2.75C9.04281 2.75 2.88281 8.91 2.88281 16.5C2.88281 24.09 9.04281 30.25 16.6328 30.25C24.2228 30.25 30.3828 24.09 30.3828 16.5C30.3828 8.91 24.2228 2.75 16.6328 2.75ZM16.6328 27.5C10.5691 27.5 5.63281 22.5637 5.63281 16.5C5.63281 10.4363 10.5691 5.5 16.6328 5.5C22.6966 5.5 27.6328 10.4363 27.6328 16.5C27.6328 22.5637 22.6966 27.5 16.6328 27.5Z" fill="#007F61"/>
</svg>
