<svg width="270" height="55" viewBox="0 0 270 55" fill="none" xmlns="http://www.w3.org/2000/svg">
<path d="M13.4067 32.1304C10.8184 32.1339 8.28719 31.3787 6.13359 29.9604C3.97999 28.542 2.3008 26.5242 1.30863 24.1625C0.316465 21.8008 0.0559264 19.2014 0.559996 16.6933C1.06407 14.1852 2.31008 11.8813 4.14029 10.0732C5.9705 8.26515 8.30261 7.03419 10.8414 6.53621C13.3801 6.03824 16.0113 6.29564 18.4019 7.27581C20.7925 8.25599 22.835 9.91488 24.2707 12.0424C25.7065 14.17 26.4709 16.6706 26.4673 19.2276C26.4625 22.6482 25.0849 25.9273 22.6366 28.346C20.1883 30.7647 16.8691 32.1256 13.4067 32.1304ZM13.4067 7.83858C11.1266 7.83858 8.89769 8.50654 7.00186 9.75798C5.10602 11.0094 3.6284 12.7881 2.75584 14.8692C1.88329 16.9503 1.65499 19.2403 2.09981 21.4495C2.54464 23.6588 3.64262 25.6881 5.25489 27.2809C6.86716 28.8737 8.92132 29.9584 11.1576 30.3978C13.3939 30.8373 15.7119 30.6117 17.8184 29.7497C19.9249 28.8877 21.7254 27.4279 22.9922 25.555C24.2589 23.6821 24.9351 21.4802 24.9351 19.2276C24.9302 16.2085 23.7141 13.3145 21.5532 11.1796C19.3922 9.0448 16.4627 7.84335 13.4067 7.83858Z" fill="white"/>
<path d="M43.5409 32.1304C40.9526 32.1339 38.4215 31.3787 36.2679 29.9604C34.1143 28.542 32.4351 26.5242 31.4429 24.1625C30.4507 21.8008 30.1902 19.2014 30.6943 16.6933C31.1983 14.1852 32.4444 11.8813 34.2746 10.0732C36.1048 8.26515 38.4369 7.03419 40.9756 6.53621C43.5144 6.03824 46.1456 6.29564 48.5362 7.27581C50.9268 8.25599 52.9692 9.91488 54.405 12.0424C55.8407 14.17 56.6052 16.6706 56.6015 19.2276C56.5967 22.6482 55.2191 25.9273 52.7709 28.346C50.3226 30.7647 47.0033 32.1256 43.5409 32.1304ZM43.5409 7.83858C41.2608 7.83858 39.0319 8.50654 37.1361 9.75798C35.2403 11.0094 33.7627 12.7881 32.8901 14.8692C32.0176 16.9503 31.7893 19.2403 32.2341 21.4495C32.6789 23.6588 33.7769 25.6881 35.3892 27.2809C37.0014 28.8737 39.0556 29.9584 41.2919 30.3978C43.5281 30.8373 45.8461 30.6117 47.9527 29.7497C50.0592 28.8877 51.8597 27.4279 53.1264 25.555C54.3932 23.6821 55.0693 21.4802 55.0693 19.2276C55.0693 16.2071 53.8547 13.3102 51.6927 11.1744C49.5307 9.0385 46.5984 7.83858 43.5409 7.83858Z" fill="white"/>
<path d="M28.4739 11.7852C27.1614 11.7828 25.8738 12.1382 24.7527 12.8123C25.0067 13.2482 25.2321 13.6996 25.4276 14.1639C26.341 13.5997 27.3966 13.3005 28.4739 13.3005C29.5511 13.3005 30.6067 13.5997 31.5201 14.1639C31.7156 13.6996 31.9411 13.2482 32.1951 12.8123C31.0739 12.1382 29.7863 11.7828 28.4739 11.7852Z" fill="white"/>
<path d="M14.1911 29.9681L13.4067 30.0042C11.1427 30.0069 8.93379 29.3136 7.08648 28.0204C5.23918 26.7272 3.84497 24.8982 3.09721 22.787C2.34944 20.6758 2.28518 18.387 2.91333 16.2381C3.54148 14.0892 4.8309 12.1866 6.6028 10.7942C5.68011 12.7018 5.20025 14.7889 5.19824 16.9032C5.19428 19.7215 6.05022 22.4757 7.65441 24.8063C9.2586 27.1368 11.5366 28.9357 14.1911 29.9681Z" fill="white"/>
<path d="M44.5075 29.9681L43.7232 30.0042C41.4591 30.0069 39.2502 29.3136 37.4029 28.0204C35.5556 26.7272 34.1614 24.8982 33.4136 22.787C32.6659 20.6758 32.6016 18.387 33.2297 16.2381C33.8579 14.0892 35.1473 12.1866 36.9192 10.7942C36.0731 12.535 35.5987 14.4292 35.5254 16.3589C35.4522 18.2886 35.7817 20.2126 36.4935 22.0111C37.2053 23.8096 38.2841 25.4441 39.6628 26.813C41.0415 28.1819 42.6906 29.2559 44.5075 29.9681Z" fill="white"/>
<path d="M30.7904 37.2845C30.0786 37.282 29.3713 37.1726 28.6927 36.9601C28.6148 36.9358 28.5428 36.8962 28.4809 36.8435C28.419 36.7909 28.3686 36.7264 28.3328 36.6539C28.297 36.5814 28.2764 36.5025 28.2724 36.4219C28.2685 36.3413 28.2811 36.2608 28.3096 36.1852C28.3635 36.0327 28.4761 35.9074 28.623 35.8366C28.7699 35.7657 28.9392 35.755 29.094 35.8068C30.0061 36.1131 31.0641 36.1672 31.7937 35.9509C32.5233 35.7347 32.3409 35.4644 32.3227 35.2301C32.2497 34.2029 31.5383 33.0856 30.9546 32.2207C30.3709 31.3557 29.9878 30.9592 29.4953 30.3645L28.7292 29.4275C28.6789 29.3652 28.6418 29.2937 28.62 29.217C28.5982 29.1403 28.5923 29.0601 28.6025 28.9811C28.6127 28.9021 28.6389 28.8259 28.6794 28.7571C28.72 28.6883 28.7741 28.6283 28.8386 28.5805C28.9005 28.5298 28.972 28.4919 29.0489 28.469C29.1258 28.446 29.2066 28.4385 29.2865 28.4469C29.3664 28.4553 29.4438 28.4794 29.5141 28.5179C29.5845 28.5563 29.6463 28.6082 29.696 28.6706C29.9331 28.995 30.1885 29.2833 30.4439 29.5897C30.9546 30.2204 31.4836 30.8511 31.9579 31.5359C32.651 32.509 33.4536 33.8065 33.5448 35.122C33.5941 35.5619 33.481 36.0046 33.2263 36.3688C32.9716 36.733 32.5925 36.9941 32.1585 37.1043C31.7133 37.2272 31.2528 37.2879 30.7904 37.2845Z" fill="white"/>
<path d="M28.474 39.6631C29.8056 38.2214 31.5385 37.9511 33.2896 37.9511C39.6923 37.9511 45.6024 39.573 50.6917 43.5916C53.5737 45.8622 55.1425 48.8356 55.0695 52.5478C55.0513 52.728 55.0513 52.9082 55.033 53.0704C54.9601 53.6471 54.7594 54.1336 54.0845 54.1877C53.4096 54.2418 53.1359 53.8453 52.9353 53.2867C52.6341 52.3623 52.2558 51.4642 51.8044 50.6016C51.4943 50.0429 50.947 49.6285 50.491 49.1419L50.2903 49.2861C50.3268 49.5744 50.3816 49.8808 50.418 50.1871C50.5275 51.3044 49.8708 51.827 48.831 51.3765C47.1711 50.6376 45.5476 49.8447 43.9059 49.0879L43.2128 48.7455C43.3222 49.0698 43.4499 49.2861 43.4499 49.4843C43.4499 49.6825 43.5411 50.6376 43.304 50.8178C43.0669 50.9981 42.2643 51.0521 41.8812 50.8359C40.0206 49.8447 38.2147 48.7455 36.3906 47.6823C36.1855 47.5477 35.9436 47.4785 35.6975 47.484C35.8981 47.8625 36.1717 48.2049 36.2629 48.6013C36.3541 48.9978 36.5001 49.6465 36.2812 49.8627C36.0623 50.079 35.3326 50.2592 34.9496 50.115C32.6694 49.2861 30.3528 48.4932 28.474 46.8173C26.6316 48.4752 24.3697 49.25 22.1443 50.061C21.7248 50.2232 20.9587 50.1691 20.7215 49.8988C20.4844 49.6285 20.6486 48.9617 20.7398 48.4752C20.831 47.9886 21.0681 47.8264 21.1046 47.3759L15.5046 50.6016C15.3039 50.7277 15.1033 50.926 14.8844 50.962C14.6655 50.998 13.8994 51.0881 13.6805 50.8719C13.4616 50.6556 13.4433 50.0429 13.4433 49.6105C13.4433 49.178 13.6075 49.1419 13.7717 48.7815L8.49998 51.2143C7.97099 51.4666 7.31431 51.845 6.87652 51.2684C6.43873 50.6917 6.67588 50.2412 6.62115 49.7186C6.62426 49.5551 6.64257 49.3922 6.67587 49.232C5.7091 49.5564 5.21659 50.2952 4.83353 51.0701C4.49852 51.7605 4.2239 52.4779 4.01268 53.2146C3.83027 53.8453 3.48369 54.2237 2.82701 54.1697C2.17033 54.1156 1.96967 53.611 1.91495 53.0524C1.79258 51.6534 1.95729 50.2444 2.39924 48.9098C2.84118 47.5753 3.55127 46.3425 4.48694 45.2855C7.11366 42.258 10.5977 40.5461 14.3554 39.3387C17.6753 38.2755 21.0681 37.7349 24.5704 38.0232C26.0297 38.1313 27.3978 38.4917 28.474 39.6631Z" fill="white"/>
<path d="M34.0013 2.36046C34.6579 1.94598 35.4423 1.81984 36.2267 1.69369L41.4984 0.882764C43.7603 0.540373 46.0404 0.179956 48.284 0.540368C50.5277 0.900781 52.7714 2.09014 53.7929 4.09043C53.9177 4.30313 53.9749 4.54801 53.957 4.79324C53.911 4.94605 53.824 5.08369 53.7051 5.19157C53.5863 5.29944 53.4401 5.37352 53.2821 5.40594C52.9679 5.46311 52.6453 5.45699 52.3336 5.38792C49.7069 4.97345 47.1349 4.30668 44.5081 4.05439C41.8814 3.8021 39.1088 4.03637 36.7921 5.31583C35.9166 5.82041 33.7823 7.47831 33.0709 5.96458C32.5055 4.7572 32.8703 3.0993 34.0013 2.36046Z" fill="white"/>
<path d="M22.947 2.36046C22.2903 1.94598 21.506 1.81984 20.7216 1.69369L15.4499 0.882764C13.188 0.540373 10.9079 0.179956 8.66424 0.540368C6.42058 0.900781 4.17692 2.09014 3.15542 4.09043C3.03057 4.30313 2.97336 4.54801 2.99124 4.79324C3.03545 4.947 3.12193 5.08566 3.24107 5.19381C3.36021 5.30197 3.50735 5.37539 3.66617 5.40594C3.98035 5.46311 4.30299 5.45699 4.61471 5.38792C7.22319 4.97345 9.79518 4.30668 12.4401 4.05439C15.0851 3.8021 17.8395 4.03637 20.1379 5.31583C21.0317 5.82041 23.1659 7.47831 23.8773 5.96458C24.4428 4.7572 24.078 3.0993 22.947 2.36046Z" fill="white"/>
<path d="M72.5956 1.28149V18.943H69.0583V1.28149H72.5956Z" fill="white"/>
<path d="M98.886 1.28159V19.6514H98.7904L86.2666 8.50676L86.3622 18.9431H82.7771V0.573242H82.9205L95.3965 11.9068V1.28159H98.886Z" fill="white"/>
<path d="M114.565 4.30397C113.93 4.26431 113.298 4.41227 112.748 4.72899C112.531 4.88484 112.356 5.09147 112.239 5.33046C112.122 5.56945 112.067 5.83335 112.079 6.09847C112.1 6.40862 112.199 6.70877 112.365 6.97238C112.532 7.23598 112.762 7.45487 113.035 7.60959C113.821 8.08604 114.654 8.48163 115.521 8.79017C116.273 9.06011 116.994 9.40835 117.672 9.82906C118.296 10.2509 118.805 10.8187 119.154 11.4819C119.604 12.2725 119.82 13.1728 119.775 14.0791C119.781 14.9636 119.532 15.8315 119.058 16.582C118.552 17.3953 117.823 18.0502 116.955 18.4709C115.919 18.9305 114.792 19.1563 113.657 19.1321C112.571 19.1374 111.491 18.9782 110.454 18.6598C109.409 18.352 108.423 17.8731 107.538 17.2431L109.068 14.5514C109.733 15.0064 110.456 15.3717 111.219 15.6375C111.889 15.9005 112.601 16.0444 113.322 16.0625C114.007 16.086 114.685 15.9226 115.282 15.5903C115.548 15.4398 115.765 15.2179 115.909 14.9506C116.053 14.6832 116.117 14.3811 116.094 14.0791C116.094 13.1819 115.234 12.3791 113.513 11.718C112.648 11.3695 111.802 10.9754 110.98 10.5374C110.274 10.1634 109.668 9.62934 109.211 8.97907C108.677 8.2187 108.408 7.30674 108.446 6.3818C108.424 5.69598 108.549 5.01322 108.812 4.37839C109.076 3.74356 109.472 3.17101 109.976 2.69837C111.109 1.73926 112.547 1.20436 114.039 1.18725C115.158 1.14968 116.275 1.3096 117.337 1.65948C118.249 1.95267 119.118 2.36563 119.919 2.88727L118.628 5.57897C117.05 4.72895 115.712 4.30397 114.565 4.30397Z" fill="white"/>
<path d="M139.278 2.88709C139.883 3.43679 140.359 4.11042 140.673 4.86087C140.986 5.61132 141.13 6.42043 141.094 7.2316C141.111 8.2563 140.898 9.27199 140.473 10.2067C140.023 11.1273 139.329 11.9106 138.465 12.4734C137.361 13.0961 136.104 13.4065 134.832 13.3706H132.299V18.943H128.81V1.28149H134.211C136.41 1.28149 138.083 1.80096 139.278 2.88709ZM136.41 9.54554C136.789 9.27264 137.1 8.91719 137.318 8.50666C137.462 8.12851 137.543 7.72979 137.557 7.32608C137.545 6.69255 137.364 6.07339 137.031 5.53158C136.649 4.91768 135.932 4.63432 134.832 4.63432H132.299V9.97056H134.832C135.391 10.0015 135.945 9.85233 136.41 9.54554Z" fill="white"/>
<path d="M162.031 1.28149V4.63432H153.331V8.41217H161.027V11.7651H153.331V15.5901H162.366V18.943H149.842V1.28149H162.031Z" fill="white"/>
<path d="M182.824 18.565C181.786 18.9516 180.684 19.1438 179.574 19.1317C177.885 19.1847 176.215 18.7761 174.746 17.9511C173.399 17.1871 172.304 16.0558 171.591 14.6927C170.837 13.334 170.458 11.803 170.492 10.2537C170.447 8.61298 170.825 6.98797 171.591 5.53139C172.255 4.16517 173.321 3.02926 174.651 2.27299C176.019 1.45921 177.595 1.04954 179.192 1.09241C180.211 1.08778 181.226 1.23099 182.203 1.51743C183.045 1.77432 183.848 2.13952 184.593 2.60358L183.207 5.9092C182.113 4.98416 180.727 4.46628 179.287 4.4453C178.384 4.43421 177.5 4.698 176.754 5.20086C175.943 5.69586 175.283 6.39724 174.842 7.23142C174.375 8.10301 174.144 9.07912 174.173 10.0648C174.141 11.0909 174.354 12.1098 174.794 13.0399C175.203 13.8808 175.851 14.5863 176.658 15.0705C177.532 15.5587 178.523 15.8035 179.526 15.7789C180.327 15.7877 181.123 15.6434 181.868 15.3538C182.481 15.1236 183.048 14.7878 183.541 14.3622L184.975 17.4789C184.329 17.9642 183.601 18.332 182.824 18.565Z" fill="white"/>
<path d="M204.909 1.28149V4.63432H200.559V18.943H197.021V4.63432H192.863V1.28149H204.909Z" fill="white"/>
<path d="M217.432 1.28149V18.943H213.895V1.28149H217.432Z" fill="white"/>
<path d="M227.757 5.67347C228.548 4.29543 229.684 3.141 231.055 2.32064C232.43 1.51568 233.999 1.09149 235.597 1.09279C237.21 1.08998 238.794 1.51397 240.185 2.32064C241.561 3.15223 242.709 4.30322 243.532 5.67347C244.343 7.03262 244.771 8.58173 244.771 10.1597C244.771 11.7376 244.343 13.2867 243.532 14.6459C242.706 15.9888 241.557 17.1084 240.185 17.9043C238.803 18.7312 237.213 19.1567 235.597 19.1321C233.996 19.1555 232.421 18.7297 231.055 17.9043C229.688 17.1203 228.551 15.9971 227.757 14.6459C226.946 13.2867 226.518 11.7376 226.518 10.1597C226.518 8.58173 226.946 7.03262 227.757 5.67347ZM230.912 12.9931C231.387 13.8338 232.08 14.5346 232.92 15.0236C233.768 15.5361 234.746 15.7983 235.74 15.7792C236.704 15.799 237.652 15.5361 238.465 15.0236C239.29 14.5316 239.966 13.8305 240.424 12.9931C240.908 12.1259 241.155 11.1495 241.141 10.1597C241.168 9.14722 240.903 8.14811 240.377 7.27907C239.934 6.41859 239.254 5.69857 238.417 5.20124C237.579 4.70614 236.621 4.4447 235.644 4.4447C234.668 4.4447 233.71 4.70614 232.872 5.20124C232.03 5.70861 231.338 6.42503 230.864 7.27907C230.377 8.16178 230.13 9.15434 230.147 10.1597C230.139 11.1549 230.403 12.1339 230.912 12.9931Z" fill="white"/>
<path d="M269.966 1.28159V19.6514H269.87L257.346 8.50676L257.442 18.9431H253.857V0.573242H254L266.476 11.9068V1.28159H269.966Z" fill="white"/>
<path d="M78.9039 52.4468C77.8727 52.7471 76.7917 52.8437 75.7227 52.731C74.6536 52.6184 73.6176 52.2987 72.6736 51.7903C71.5473 51.1192 70.62 50.1664 69.9856 49.0281C69.3511 47.8898 69.0319 46.6062 69.0601 45.3071C69.0455 43.9444 69.389 42.6013 70.0569 41.4089C70.6759 40.2589 71.612 39.3058 72.7567 38.6597C73.9171 37.9921 75.2351 37.6382 76.578 37.6339C78.0323 37.6159 79.4607 38.015 80.69 38.7828L80.2331 39.7266C79.1637 39.017 77.9076 38.6319 76.6195 38.6187C75.4744 38.607 74.3499 38.9203 73.3798 39.5214C72.3835 40.1021 71.5653 40.9387 71.0122 41.9424C70.4337 42.9564 70.133 44.102 70.14 45.266C70.1202 46.4083 70.3916 47.5372 70.9292 48.5487C71.4517 49.5365 72.2429 50.3607 73.2136 50.9286C74.2468 51.5205 75.4255 51.8187 76.6195 51.7903C77.9179 51.7997 79.1899 51.4285 80.2746 50.7235L80.773 51.6262C80.1818 51.9656 79.5551 52.2408 78.9039 52.4468Z" fill="white"/>
<path d="M89.4955 41.4499C90.1789 40.3096 91.1343 39.3516 92.2783 38.6597C93.4387 37.992 94.7568 37.6382 96.0996 37.6338C97.4507 37.629 98.7786 37.9801 99.9467 38.6508C101.115 39.3215 102.081 40.2878 102.745 41.4499C103.755 43.1811 104.03 45.2371 103.508 47.1676C102.986 49.0982 101.711 50.7457 99.9624 51.7493C98.793 52.4315 97.4576 52.7861 96.0996 52.7751C94.7603 52.7852 93.442 52.4454 92.2783 51.7903C91.1205 51.152 90.1589 50.2162 89.4955 49.0821C88.8092 47.9102 88.4508 46.5789 88.4571 45.225C88.4615 43.8984 88.8197 42.5963 89.4955 41.4499ZM90.4093 48.5076C90.9736 49.503 91.7893 50.3371 92.7768 50.9286C93.7881 51.5004 94.9345 51.7977 96.0996 51.7903C97.2653 51.8016 98.4127 51.5041 99.4225 50.9286C100.433 50.3477 101.271 49.5153 101.854 48.5146C102.437 47.5138 102.744 46.3796 102.745 45.225C102.742 44.0699 102.427 42.9366 101.831 41.9423C101.251 40.9452 100.422 40.1117 99.4225 39.5214C98.4179 38.9286 97.2697 38.6156 96.0996 38.6156C94.9296 38.6156 93.7813 38.9286 92.7768 39.5214C91.7893 40.1128 90.9736 40.9469 90.4093 41.9423C89.8307 42.9564 89.5301 44.102 89.537 45.266C89.5309 46.4039 89.832 47.5229 90.4093 48.5076Z" fill="white"/>
<path d="M126.794 37.4697V52.611H125.797V40.4652L119.608 49.0411H119.567L113.461 40.5472V52.611H112.464V37.4697L119.608 47.5228L126.794 37.4697Z" fill="white"/>
<path d="M143.283 38.906C144.114 39.6173 144.529 40.6431 144.529 41.9835C144.536 42.7369 144.366 43.4815 144.031 44.1583C143.674 44.8434 143.127 45.4131 142.452 45.7996C141.623 46.2369 140.692 46.4493 139.753 46.4151H137.468V52.6111H136.43V37.7981H139.877C141.112 37.7412 142.324 38.1356 143.283 38.906ZM141.954 44.8968C142.482 44.5725 142.901 44.1014 143.158 43.5428C143.391 43.0558 143.505 42.5218 143.491 41.9835C143.512 41.5583 143.442 41.1335 143.285 40.7373C143.127 40.341 142.886 39.9825 142.577 39.6857C142.231 39.3717 141.825 39.13 141.382 38.9749C140.94 38.8198 140.47 38.7545 140.002 38.7829H137.468V45.4303H139.753C140.522 45.4554 141.284 45.2708 141.954 44.8968Z" fill="white"/>
<path d="M161.351 52.6111L157.447 46.333L156.326 46.4151H154V52.6111H152.961V37.7981H156.367C157.155 37.7993 157.934 37.9672 158.651 38.2905C159.387 38.5937 160.013 39.1076 160.45 39.7659C160.887 40.4241 161.114 41.1965 161.102 41.9835C161.118 42.844 160.903 43.6934 160.479 44.4454C160.038 45.2047 159.328 45.775 158.485 46.0458L162.556 52.6111H161.351ZM159.15 44.4044C159.756 43.7749 160.084 42.9339 160.064 42.0656C160.066 41.4875 159.908 40.9197 159.607 40.4242C159.312 39.9205 158.88 39.5083 158.361 39.2343C157.803 38.9268 157.172 38.7711 156.533 38.7829H154V45.4303H156.242C157.613 45.4303 158.568 45.102 159.15 44.4044Z" fill="white"/>
<path d="M180.416 37.7981V38.7829H172.192V44.6506H179.585V45.6354H172.192V51.6263H180.707V52.6111H171.154V37.7981H180.416Z" fill="white"/>
<path d="M195.286 38.8648C194.704 38.7053 194.103 38.6226 193.5 38.6186C192.646 38.5735 191.805 38.8359 191.132 39.3571C190.835 39.564 190.595 39.8417 190.435 40.1645C190.276 40.4873 190.201 40.8447 190.218 41.2036C190.203 41.6891 190.382 42.1608 190.717 42.5167C191.043 42.9149 191.454 43.2371 191.921 43.4605C192.544 43.7536 193.181 44.0139 193.832 44.2401C194.549 44.4992 195.243 44.8149 195.909 45.1839C196.474 45.5102 196.957 45.9592 197.321 46.4969C197.727 47.1191 197.93 47.8497 197.902 48.5896C197.913 49.3718 197.697 50.1406 197.279 50.8054C196.898 51.4339 196.333 51.9343 195.659 52.2416C194.897 52.61 194.057 52.7929 193.209 52.775C191.513 52.7462 189.864 52.2175 188.474 51.2568L188.972 50.4361C189.57 50.8448 190.211 51.1887 190.883 51.4619C191.585 51.7326 192.331 51.8717 193.084 51.8723C193.713 51.877 194.336 51.7513 194.912 51.503C195.463 51.2648 195.937 50.8815 196.282 50.3951C196.657 49.8829 196.847 49.2619 196.822 48.6307C196.844 48.0443 196.668 47.4674 196.324 46.9894C196.002 46.5394 195.575 46.1733 195.078 45.9225C194.485 45.5863 193.859 45.3113 193.209 45.1018C192.501 44.8372 191.808 44.5359 191.132 44.1991C190.575 43.9333 190.091 43.5393 189.72 43.0501C189.34 42.5409 189.149 41.9177 189.18 41.2857C189.17 40.6307 189.358 39.9876 189.721 39.4391C190.083 38.8907 190.604 38.462 191.215 38.2082C191.883 37.911 192.602 37.7438 193.333 37.7158C194.048 37.7308 194.759 37.8272 195.452 38.0031C196.116 38.1535 196.759 38.388 197.362 38.7006L196.989 39.4803C196.443 39.2196 195.873 39.0134 195.286 38.8648Z" fill="white"/>
<path d="M212.398 38.8648C211.803 38.7027 211.188 38.6199 210.571 38.6186C209.718 38.5843 208.881 38.8456 208.203 39.3571C207.919 39.5735 207.691 39.8542 207.539 40.1755C207.388 40.4968 207.316 40.8494 207.331 41.2036C207.316 41.689 207.495 42.1608 207.829 42.5167C208.156 42.9149 208.567 43.2371 209.034 43.4605C209.656 43.7536 210.294 44.0139 210.944 44.2401C211.661 44.4992 212.356 44.8148 213.021 45.1839C213.578 45.5216 214.059 45.9684 214.433 46.4969C214.84 47.1191 215.043 47.8496 215.015 48.5896C215.025 49.3718 214.809 50.1406 214.392 50.8054C214.005 51.4454 213.424 51.9481 212.73 52.2415C211.985 52.6145 211.157 52.7978 210.321 52.775C208.625 52.7462 206.976 52.2175 205.586 51.2567L206.085 50.4361C206.683 50.8447 207.323 51.1887 207.995 51.4619C208.697 51.7326 209.444 51.8717 210.197 51.8722C210.825 51.8723 211.447 51.7467 212.024 51.503C212.575 51.2648 213.05 50.8815 213.395 50.3951C213.769 49.8829 213.959 49.2618 213.935 48.6307C213.956 48.0443 213.781 47.4674 213.437 46.9893C213.115 46.5394 212.687 46.1732 212.191 45.9224C211.598 45.5863 210.971 45.3113 210.321 45.1018C209.6 44.8363 208.893 44.535 208.203 44.1991C207.666 43.9206 207.198 43.5283 206.832 43.0501C206.452 42.5409 206.262 41.9177 206.293 41.2857C206.282 40.6307 206.47 39.9876 206.833 39.4391C207.196 38.8907 207.716 38.462 208.328 38.2082C208.995 37.911 209.714 37.7438 210.446 37.7158C211.161 37.7333 211.871 37.8297 212.564 38.0031C213.229 38.1535 213.871 38.388 214.475 38.7006L214.101 39.4803C213.553 39.226 212.983 39.0201 212.398 38.8648Z" fill="white"/>
<path d="M224.733 37.7981V52.6111H223.695V37.7981H224.733Z" fill="white"/>
<path d="M234.453 41.4499C235.125 40.301 236.083 39.3406 237.236 38.6596C238.395 37.9888 239.714 37.6353 241.057 37.6353C242.401 37.6353 243.719 37.9888 244.878 38.6596C246.043 39.3394 247.015 40.2993 247.703 41.4499C248.382 42.5949 248.74 43.8979 248.74 45.2249C248.74 46.5519 248.382 47.855 247.703 48.9999C247.017 50.1406 246.045 51.0873 244.881 51.7486C243.717 52.4099 242.4 52.7634 241.057 52.775C239.704 52.7904 238.371 52.4505 237.194 51.7902C236.048 51.151 235.1 50.2146 234.453 49.082C233.747 47.9182 233.387 46.5815 233.415 45.2249C233.398 43.8956 233.758 42.5882 234.453 41.4499ZM235.367 48.5076C235.931 49.503 236.747 50.337 237.734 50.9285C238.729 51.5044 239.863 51.8023 241.016 51.7902C242.194 51.7971 243.354 51.5001 244.38 50.9285C245.378 50.354 246.208 49.5341 246.789 48.5486C247.368 47.5346 247.668 46.3889 247.661 45.2249C247.673 44.0734 247.372 42.9398 246.789 41.9423C246.193 40.9434 245.35 40.1105 244.339 39.5213C243.345 38.9385 242.213 38.627 241.057 38.6186C239.876 38.6261 238.716 38.9372 237.693 39.5213C236.714 40.124 235.901 40.9554 235.325 41.9423C234.747 42.9563 234.446 44.1019 234.453 45.2659C234.44 46.4102 234.757 47.5345 235.367 48.5076Z" fill="white"/>
<path d="M269.966 37.798V52.9803H269.924L258.377 40.1369V52.6109H257.339V37.5107H257.422L268.969 50.4362V37.798H269.966Z" fill="white"/>
</svg>
