<svg width="25" height="25" viewBox="0 0 25 25" fill="none" xmlns="http://www.w3.org/2000/svg">
<path d="M14.38 5.45728L19.21 10.2873V19.4573H5.20996V5.45728H14.38ZM14.38 3.45728H5.20996C4.10996 3.45728 3.20996 4.35728 3.20996 5.45728V19.4573C3.20996 20.5573 4.10996 21.4573 5.20996 21.4573H19.21C20.31 21.4573 21.21 20.5573 21.21 19.4573V10.2873C21.21 9.75728 21 9.24728 20.62 8.87728L15.79 4.04728C15.42 3.66728 14.91 3.45728 14.38 3.45728ZM7.20996 15.4573H17.21V17.4573H7.20996V15.4573ZM7.20996 11.4573H17.21V13.4573H7.20996V11.4573ZM7.20996 7.45728H14.21V9.45728H7.20996V7.45728Z" fill="#007F61"/>
</svg>
