<svg width="49" height="49" viewBox="0 0 49 49" fill="none" xmlns="http://www.w3.org/2000/svg">
<circle cx="24.9505" cy="24.3052" r="24.0384" fill="#EBEBF7"/>
<path d="M30.8545 21.3818C30.8545 19.7905 30.2224 18.2644 29.0971 17.1392C27.9719 16.014 26.4458 15.3818 24.8545 15.3818C23.2632 15.3818 21.7371 16.014 20.6119 17.1392C19.4866 18.2644 18.8545 19.7905 18.8545 21.3818C18.8545 28.3818 15.8545 30.3818 15.8545 30.3818H33.8545C33.8545 30.3818 30.8545 28.3818 30.8545 21.3818Z" stroke="#393939" stroke-width="2" stroke-linecap="round" stroke-linejoin="round"/>
<path d="M26.5845 34.3818C26.4087 34.6849 26.1564 34.9365 25.8527 35.1114C25.5491 35.2862 25.2049 35.3783 24.8545 35.3783C24.5041 35.3783 24.1599 35.2862 23.8563 35.1114C23.5527 34.9365 23.3003 34.6849 23.1245 34.3818" stroke="#393939" stroke-width="2" stroke-linecap="round" stroke-linejoin="round"/>
</svg>
