<svg width="30" height="31" viewBox="0 0 30 31" fill="none" xmlns="http://www.w3.org/2000/svg">
<path d="M17.65 5.64038L19.9375 8.14038H25V23.1404H5V8.14038H10.0625L12.35 5.64038H17.65ZM18.75 3.14038H11.25L8.9625 5.64038H5C3.625 5.64038 2.5 6.76538 2.5 8.14038V23.1404C2.5 24.5154 3.625 25.6404 5 25.6404H25C26.375 25.6404 27.5 24.5154 27.5 23.1404V8.14038C27.5 6.76538 26.375 5.64038 25 5.64038H21.0375L18.75 3.14038ZM15 11.8904C17.0625 11.8904 18.75 13.5779 18.75 15.6404C18.75 17.7029 17.0625 19.3904 15 19.3904C12.9375 19.3904 11.25 17.7029 11.25 15.6404C11.25 13.5779 12.9375 11.8904 15 11.8904ZM15 9.39038C11.55 9.39038 8.75 12.1904 8.75 15.6404C8.75 19.0904 11.55 21.8904 15 21.8904C18.45 21.8904 21.25 19.0904 21.25 15.6404C21.25 12.1904 18.45 9.39038 15 9.39038Z" fill="#007F61"/>
</svg>
