<svg width="26" height="26" viewBox="0 0 26 26" fill="none" xmlns="http://www.w3.org/2000/svg">
<rect x="0.0332031" y="0.233521" width="24.7831" height="24.7831" rx="12.3916" fill="#D9ECE7"/>
<path d="M12.623 2.09985C6.87305 2.09985 2.2168 6.76652 2.2168 12.5165C2.2168 18.2665 6.87305 22.9332 12.623 22.9332C18.3835 22.9332 23.0501 18.2665 23.0501 12.5165C23.0501 6.76652 18.3835 2.09985 12.623 2.09985ZM12.6335 20.8499C8.0293 20.8499 4.30013 17.1207 4.30013 12.5165C4.30013 7.91235 8.0293 4.18319 12.6335 4.18319C17.2376 4.18319 20.9668 7.91235 20.9668 12.5165C20.9668 17.1207 17.2376 20.8499 12.6335 20.8499ZM13.1543 7.30819H11.5918V13.5582L17.0605 16.8394L17.8418 15.5582L13.1543 12.7769V7.30819Z" fill="#007F61"/>
</svg>
