<svg width="63" height="63" viewBox="0 0 63 63" fill="none" xmlns="http://www.w3.org/2000/svg">
<rect x="0.0859375" y="0.699829" width="61.9838" height="61.9838" rx="5" fill="#D9ECE7"/>
<path d="M37.0781 27.6918C37.0781 26.1005 36.446 24.5743 35.3208 23.4491C34.1955 22.3239 32.6694 21.6918 31.0781 21.6918C29.4868 21.6918 27.9607 22.3239 26.8355 23.4491C25.7103 24.5743 25.0781 26.1005 25.0781 27.6918C25.0781 34.6918 22.0781 36.6918 22.0781 36.6918H40.0781C40.0781 36.6918 37.0781 34.6918 37.0781 27.6918Z" stroke="#007F61" stroke-width="2" stroke-linecap="round" stroke-linejoin="round"/>
<path d="M32.8077 40.6918C32.6318 40.9949 32.3795 41.2464 32.0759 41.4213C31.7723 41.5962 31.428 41.6882 31.0777 41.6882C30.7273 41.6882 30.383 41.5962 30.0794 41.4213C29.7758 41.2464 29.5235 40.9949 29.3477 40.6918" stroke="#007F61" stroke-width="2" stroke-linecap="round" stroke-linejoin="round"/>
</svg>
